# xmcd CD database file
#
# Track frame offsets:
#	150
#	22541
#	39264
#	57245
#	80060
#	98851
#	120349
#	141567
#	161628
#	184385
#	207811
#	229007
#	246229
#
# Disc length: 3481 seconds
#
# Revision: 2
# Processed by: cddbd v1.5PL3 Copyright (c) Steve Scherf et al.
# Submitted via: CDex 1.40Beta9
#
DISCID=a80d970d
DTITLE=¢Ü - HippyMizikGroup
DYEAR=2004
DGENRE=Blues
TTITLE0=Lucky Peterson-Ta Ta You
TTITLE1=Hiram Brock-Funky Broadway
TTITLE2=Cornell Dupree-Southern Comfort
TTITLE3=Ottmar Liebert-Ballad 4 Santana
TTITLE4=Coco Motoya-Monkey See,Monkey Do
TTITLE5=Ana Popovic-Naajo Moon
TTITLE6=Jeff Golub-On The Beach
TTITLE7=Cornell Dupree-Duck Soup
TTITLE8=Larry McCray-Blue River
TTITLE9=Rita Chiarell-72nd Street
TTITLE10=Chris Thomas King-Thrill is Gone
TTITLE11=Jeff Golub-Keep The Ball Rollin'
TTITLE12=Vargas Blues Band-Spanish Fly
EXTD=YEAR: 2004 ID3G: 0
EXTT0=
EXTT1=
EXTT2=
EXTT3=
EXTT4=
EXTT5=
EXTT6=
EXTT7=
EXTT8=
EXTT9=
EXTT10=
EXTT11=
EXTT12=
PLAYORDER=
